<svg width="36" height="36" viewBox="0 0 36 36" fill="none" xmlns="http://www.w3.org/2000/svg">
<path d="M30.2326 15.0545H30.1488V12.9926C30.1488 6.36929 24.8037 1 18.21 1C11.6163 1 6.27121 6.36929 6.27121 12.9926V15.0545H5.76855C3.92535 15.0545 2.50109 16.6956 2.50109 18.5892V23.8491C2.45466 25.6844 3.89825 27.2101 5.72533 27.2567C5.73977 27.2571 5.75412 27.2574 5.76855 27.2575H8.86843C9.30751 27.2368 9.64675 26.8624 9.62606 26.4213C9.62534 26.4055 9.62414 26.3896 9.62246 26.3738V16.0644C9.62246 15.5594 9.32923 15.0544 8.86843 15.0544H7.94683V12.9925C7.94683 7.29883 12.5419 2.6831 18.21 2.6831C23.8782 2.6831 28.4732 7.29883 28.4732 12.9925V15.0544H27.5516C27.0908 15.0544 26.7976 15.5594 26.7976 16.0644V26.3738C26.7508 26.8128 27.0672 27.2069 27.5043 27.2538C27.52 27.2555 27.5358 27.2567 27.5516 27.2574H28.5151L28.4313 27.3837C27.8113 28.2113 27.0075 28.8819 26.0838 29.3422C25.1602 29.8024 24.1422 30.0396 23.1112 30.0346C22.6535 27.7803 20.4631 26.3255 18.2189 26.7853C16.2998 27.1784 14.9161 28.8668 14.9006 30.8342C14.9236 33.1417 16.7924 35.0002 19.0897 35C20.2269 34.9815 21.3109 34.5127 22.1058 33.6955C22.6421 33.1438 22.9936 32.4377 23.1112 31.6757C24.4024 31.6806 25.6768 31.3826 26.8332 30.8055C27.9895 30.2284 28.9957 29.3881 29.7717 28.3515L30.5677 27.1732C32.369 27.047 33.5 25.9109 33.5 24.2697V19.0098C33.5001 17.2006 32.1596 15.0545 30.2326 15.0545ZM7.94683 25.5743H5.76855C4.86651 25.5523 4.15306 24.7999 4.17503 23.8938C4.17543 23.8789 4.17599 23.864 4.17671 23.849V18.5891C4.17671 17.6213 4.84695 16.7376 5.76855 16.7376H7.94683V25.5743ZM20.891 32.5174C20.6614 32.7676 20.383 32.9677 20.0731 33.1052C19.7632 33.2427 19.4285 33.3148 19.0898 33.317C17.7268 33.2952 16.6208 32.2028 16.5763 30.8343C16.5758 29.4631 17.6819 28.3511 19.0469 28.3506C20.4119 28.35 21.5189 29.4611 21.5194 30.8322V30.8343C21.5367 31.1433 21.4897 31.4525 21.3815 31.7423C21.2733 32.032 21.1063 32.296 20.891 32.5174ZM31.8245 24.2699C31.8245 25.406 30.7353 25.5743 30.2326 25.5743H28.4732V16.7377H30.2326C31.1542 16.7377 31.8245 18.0422 31.8245 19.01V24.2699Z" fill="white" stroke="white" stroke-width="0.5"/>
</svg>
