<svg width="60" height="60" viewBox="0 0 60 60" fill="none" xmlns="http://www.w3.org/2000/svg">
<path d="M30.001 59C26.2602 59 19.929 58.3162 19.929 55.753C19.929 53.1915 26.2602 52.508 30.001 52.508C33.7406 52.508 40.0698 53.1916 40.0698 55.753C40.0698 58.3162 33.7406 59 30.001 59ZM21.6674 55.7533C22.1613 56.3409 25.1675 57.292 30.001 57.292C34.8328 57.292 37.8374 56.3408 38.3313 55.7533C37.8362 55.1662 34.831 54.2158 30.001 54.2158C25.1693 54.2158 22.1624 55.1662 21.6674 55.7533ZM29.9994 51.3552C29.8677 51.3552 29.7378 51.3246 29.6198 51.2657C29.5019 51.2069 29.3992 51.1214 29.3197 51.0161L28.7699 50.2861C25.9765 46.5772 22.4707 43.343 18.3497 40.6731C11.8266 36.4474 8.06743 28.9905 8.53981 21.2126C9.19121 10.476 17.7521 1.8106 28.4539 1.05588C41.2586 0.150064 51.5 10.3826 51.5 22.5575C51.5 29.8515 47.8612 36.5973 41.7666 40.6023C37.5086 43.4003 33.9624 46.6592 31.2273 50.2884L30.6784 51.0164C30.599 51.1217 30.4964 51.2071 30.3786 51.2658C30.2608 51.3246 30.131 51.3552 29.9994 51.3552ZM30.021 2.70816C29.541 2.70816 29.0582 2.72514 28.5737 2.75935C18.721 3.45426 10.8392 11.4319 10.2394 21.3166C9.80474 28.4796 13.2667 35.3468 19.2737 39.2387C23.4996 41.9764 27.1074 45.2887 30 49.086C32.8344 45.3693 36.4781 42.0353 40.8331 39.1735C46.446 35.4852 49.797 29.2733 49.797 22.5573C49.797 11.8522 41.1719 2.70816 30.021 2.70816Z" fill="#333333"/>
<path d="M38.3801 55.8252H38.3856M30.001 59C26.2602 59 19.929 58.3162 19.929 55.753C19.929 53.1915 26.2602 52.508 30.001 52.508C33.7406 52.508 40.0698 53.1916 40.0698 55.753C40.0698 58.3162 33.7406 59 30.001 59ZM21.6674 55.7533C22.1613 56.3409 25.1675 57.2921 30.001 57.2921C34.8328 57.2921 37.8374 56.3408 38.3313 55.7533C37.8362 55.1662 34.831 54.2158 30.001 54.2158C25.1693 54.2158 22.1624 55.1662 21.6674 55.7533ZM29.9994 51.3552C29.8677 51.3552 29.7378 51.3246 29.6198 51.2657C29.5019 51.2069 29.3992 51.1214 29.3197 51.0161L28.7699 50.2861C25.9765 46.5772 22.4707 43.343 18.3497 40.6731C11.8266 36.4474 8.06743 28.9905 8.53981 21.2126C9.19121 10.476 17.7521 1.8106 28.4539 1.05588C41.2586 0.150064 51.5 10.3826 51.5 22.5575C51.5 29.8515 47.8612 36.5973 41.7666 40.6023C37.5086 43.4003 33.9624 46.6592 31.2273 50.2884L30.6784 51.0164C30.599 51.1217 30.4964 51.2071 30.3786 51.2658C30.2608 51.3246 30.131 51.3552 29.9994 51.3552ZM30.021 2.70816C29.541 2.70816 29.0582 2.72514 28.5737 2.75935C18.721 3.45426 10.8392 11.4319 10.2394 21.3166C9.80474 28.4796 13.2666 35.3468 19.2737 39.2387C23.4996 41.9764 27.1074 45.2887 30 49.086C32.8344 45.3693 36.4781 42.0353 40.8331 39.1735C46.446 35.4852 49.797 29.2733 49.797 22.5573C49.797 11.8522 41.1719 2.70816 30.021 2.70816Z" stroke="#333333"/>
<path d="M29.9993 30.9302C25.0423 30.9302 21.0093 26.886 21.0093 21.9148C21.0093 16.9473 25.0423 12.9055 29.9993 12.9055C34.9563 12.9055 38.9893 16.9471 38.9893 21.9148C38.9892 26.886 34.9563 30.9302 29.9993 30.9302ZM29.9993 14.6133C25.9814 14.6133 22.7122 17.8886 22.7122 21.9147C22.7122 25.9441 25.9812 29.2222 29.9993 29.2222C34.0173 29.2222 37.2863 25.9441 37.2863 21.9147C37.2862 17.8887 34.0172 14.6133 29.9993 14.6133Z" fill="#179C6D" stroke="#179C6D"/>
</svg>
