<svg xmlns="http://www.w3.org/2000/svg" xmlns:xlink="http://www.w3.org/1999/xlink" width="40" zoomAndPan="magnify" viewBox="0 0 30 30.000001" height="40" preserveAspectRatio="xMidYMid meet" version="1.0"><defs><g/><clipPath id="6e76fd4398"><path d="M 0.484375 0 L 29.515625 0 L 29.515625 29.03125 L 0.484375 29.03125 Z M 0.484375 0 " clip-rule="nonzero"/></clipPath><clipPath id="4c00d3615a"><path d="M 3.386719 1.273438 L 26.613281 1.273438 L 26.613281 6 L 3.386719 6 Z M 3.386719 1.273438 " clip-rule="nonzero"/></clipPath><clipPath id="28cfe680a7"><path d="M 3.386719 5 L 26.613281 5 L 26.613281 9 L 3.386719 9 Z M 3.386719 5 " clip-rule="nonzero"/></clipPath><clipPath id="7527b75c3f"><path d="M 3.386719 8 L 26.613281 8 L 26.613281 13 L 3.386719 13 Z M 3.386719 8 " clip-rule="nonzero"/></clipPath><clipPath id="6fbf9cd704"><path d="M 3.386719 12 L 26.613281 12 L 26.613281 16.515625 L 3.386719 16.515625 Z M 3.386719 12 " clip-rule="nonzero"/></clipPath></defs><g clip-path="url(#6e76fd4398)"><path fill="#ffffff" d="M 0.484375 0 L 29.515625 0 L 29.515625 101.613281 L 0.484375 101.613281 Z M 0.484375 0 " fill-opacity="1" fill-rule="nonzero"/><path fill="#ffffff" d="M 0.484375 0 L 29.515625 0 L 29.515625 29.03125 L 0.484375 29.03125 Z M 0.484375 0 " fill-opacity="1" fill-rule="nonzero"/><path fill="#ffffff" d="M 0.484375 0 L 29.515625 0 L 29.515625 29.03125 L 0.484375 29.03125 Z M 0.484375 0 " fill-opacity="1" fill-rule="nonzero"/></g><g clip-path="url(#4c00d3615a)"><path fill="#dc181e" d="M 3.398438 1.273438 L 26.601562 1.273438 L 26.601562 5.085938 L 3.398438 5.085938 Z M 3.398438 1.273438 " fill-opacity="1" fill-rule="nonzero"/></g><g clip-path="url(#28cfe680a7)"><path fill="#012a87" d="M 3.398438 5.085938 L 26.601562 5.085938 L 26.601562 8.894531 L 3.398438 8.894531 Z M 3.398438 5.085938 " fill-opacity="1" fill-rule="nonzero"/></g><g clip-path="url(#7527b75c3f)"><path fill="#fceb0f" d="M 3.398438 8.894531 L 26.601562 8.894531 L 26.601562 12.707031 L 3.398438 12.707031 Z M 3.398438 8.894531 " fill-opacity="1" fill-rule="nonzero"/></g><g clip-path="url(#6fbf9cd704)"><path fill="#169253" d="M 3.398438 12.707031 L 26.601562 12.707031 L 26.601562 16.515625 L 3.398438 16.515625 Z M 3.398438 12.707031 " fill-opacity="1" fill-rule="nonzero"/></g><g fill="#000000" fill-opacity="1"><g transform="translate(11.342615, 21.337999)"><g><path d="M 2.109375 -2.765625 L 2.109375 -2.3125 L 0.90625 -2.3125 L 0.90625 -1.578125 L 2 -1.578125 L 2 -1.125 L 0.90625 -1.125 L 0.90625 0 L 0.359375 0 L 0.359375 -2.765625 Z M 2.109375 -2.765625 "/></g></g></g><g fill="#000000" fill-opacity="1"><g transform="translate(13.574557, 21.337999)"><g><path d="M 1.21875 0.046875 C 1.03125 0.046875 0.859375 0.0195312 0.703125 -0.03125 C 0.554688 -0.0820312 0.429688 -0.144531 0.328125 -0.21875 C 0.234375 -0.289062 0.160156 -0.375 0.109375 -0.46875 L 0.40625 -0.84375 L 0.453125 -0.84375 C 0.535156 -0.71875 0.640625 -0.617188 0.765625 -0.546875 C 0.898438 -0.472656 1.050781 -0.4375 1.21875 -0.4375 C 1.375 -0.4375 1.488281 -0.46875 1.5625 -0.53125 C 1.632812 -0.59375 1.671875 -0.675781 1.671875 -0.78125 C 1.671875 -0.84375 1.65625 -0.894531 1.625 -0.9375 C 1.601562 -0.988281 1.566406 -1.03125 1.515625 -1.0625 C 1.460938 -1.09375 1.382812 -1.117188 1.28125 -1.140625 L 0.9375 -1.21875 C 0.6875 -1.28125 0.5 -1.375 0.375 -1.5 C 0.25 -1.632812 0.1875 -1.804688 0.1875 -2.015625 C 0.1875 -2.171875 0.222656 -2.304688 0.296875 -2.421875 C 0.378906 -2.546875 0.492188 -2.640625 0.640625 -2.703125 C 0.796875 -2.773438 0.976562 -2.8125 1.1875 -2.8125 C 1.40625 -2.8125 1.585938 -2.78125 1.734375 -2.71875 C 1.890625 -2.664062 2.019531 -2.582031 2.125 -2.46875 L 1.859375 -2.09375 L 1.8125 -2.09375 C 1.726562 -2.175781 1.632812 -2.238281 1.53125 -2.28125 C 1.4375 -2.320312 1.320312 -2.34375 1.1875 -2.34375 C 1.039062 -2.34375 0.925781 -2.316406 0.84375 -2.265625 C 0.769531 -2.210938 0.734375 -2.140625 0.734375 -2.046875 C 0.734375 -1.953125 0.757812 -1.878906 0.8125 -1.828125 C 0.863281 -1.773438 0.957031 -1.734375 1.09375 -1.703125 L 1.453125 -1.640625 C 1.722656 -1.578125 1.921875 -1.476562 2.046875 -1.34375 C 2.171875 -1.207031 2.234375 -1.03125 2.234375 -0.8125 C 2.234375 -0.644531 2.191406 -0.492188 2.109375 -0.359375 C 2.035156 -0.234375 1.921875 -0.132812 1.765625 -0.0625 C 1.617188 0.0078125 1.4375 0.046875 1.21875 0.046875 Z M 1.21875 0.046875 "/></g></g></g><g fill="#000000" fill-opacity="1"><g transform="translate(15.94623, 21.337999)"><g><path d="M 1.515625 0.046875 C 1.253906 0.046875 1.023438 -0.00390625 0.828125 -0.109375 C 0.640625 -0.222656 0.488281 -0.382812 0.375 -0.59375 C 0.269531 -0.8125 0.21875 -1.078125 0.21875 -1.390625 C 0.21875 -1.691406 0.269531 -1.945312 0.375 -2.15625 C 0.488281 -2.375 0.640625 -2.535156 0.828125 -2.640625 C 1.023438 -2.753906 1.253906 -2.8125 1.515625 -2.8125 C 1.773438 -2.8125 2 -2.757812 2.1875 -2.65625 C 2.375 -2.550781 2.507812 -2.390625 2.59375 -2.171875 L 2.1875 -1.9375 L 2.140625 -1.9375 C 2.078125 -2.070312 1.992188 -2.171875 1.890625 -2.234375 C 1.796875 -2.296875 1.671875 -2.328125 1.515625 -2.328125 C 1.285156 -2.328125 1.101562 -2.25 0.96875 -2.09375 C 0.84375 -1.945312 0.78125 -1.710938 0.78125 -1.390625 C 0.78125 -1.054688 0.84375 -0.8125 0.96875 -0.65625 C 1.101562 -0.507812 1.285156 -0.4375 1.515625 -0.4375 C 1.867188 -0.4375 2.085938 -0.609375 2.171875 -0.953125 L 2.21875 -0.953125 L 2.625 -0.75 C 2.550781 -0.488281 2.421875 -0.289062 2.234375 -0.15625 C 2.046875 -0.0195312 1.804688 0.046875 1.515625 0.046875 Z M 1.515625 0.046875 "/></g></g></g><g fill="#000000" fill-opacity="1"><g transform="translate(5.309189, 24.252081)"><g><path d="M 1.203125 -1.578125 L 1.203125 -1.3125 L 0.515625 -1.3125 L 0.515625 -0.890625 L 1.140625 -0.890625 L 1.140625 -0.640625 L 0.515625 -0.640625 L 0.515625 0 L 0.203125 0 L 0.203125 -1.578125 Z M 1.203125 -1.578125 "/></g></g></g><g fill="#000000" fill-opacity="1"><g transform="translate(6.58254, 24.252081)"><g><path d="M 0.3125 -1.328125 C 0.257812 -1.328125 0.21875 -1.34375 0.1875 -1.375 C 0.15625 -1.40625 0.140625 -1.445312 0.140625 -1.5 C 0.140625 -1.550781 0.15625 -1.59375 0.1875 -1.625 C 0.21875 -1.65625 0.257812 -1.671875 0.3125 -1.671875 C 0.351562 -1.671875 0.382812 -1.664062 0.40625 -1.65625 C 0.4375 -1.644531 0.457031 -1.625 0.46875 -1.59375 C 0.488281 -1.5625 0.5 -1.53125 0.5 -1.5 C 0.5 -1.46875 0.488281 -1.4375 0.46875 -1.40625 C 0.457031 -1.382812 0.4375 -1.363281 0.40625 -1.34375 C 0.382812 -1.332031 0.351562 -1.328125 0.3125 -1.328125 Z M 0.171875 0 L 0.171875 -1.1875 L 0.46875 -1.1875 L 0.46875 0 Z M 0.171875 0 "/></g></g></g><g fill="#000000" fill-opacity="1"><g transform="translate(7.222448, 24.252081)"><g><path d="M 0.171875 0 L 0.171875 -1.1875 L 0.453125 -1.1875 L 0.453125 -1.015625 L 0.484375 -1 C 0.554688 -1.132812 0.675781 -1.203125 0.84375 -1.203125 C 0.976562 -1.203125 1.078125 -1.164062 1.140625 -1.09375 C 1.203125 -1.019531 1.234375 -0.910156 1.234375 -0.765625 L 1.234375 0 L 0.9375 0 L 0.9375 -0.734375 C 0.9375 -0.816406 0.921875 -0.875 0.890625 -0.90625 C 0.859375 -0.9375 0.804688 -0.953125 0.734375 -0.953125 C 0.648438 -0.953125 0.582031 -0.925781 0.53125 -0.875 C 0.488281 -0.820312 0.46875 -0.734375 0.46875 -0.609375 L 0.46875 0 Z M 0.171875 0 "/></g></g></g><g fill="#000000" fill-opacity="1"><g transform="translate(8.6143, 24.252081)"><g><path d="M 0.46875 0.015625 C 0.382812 0.015625 0.316406 0.00390625 0.265625 -0.015625 C 0.210938 -0.046875 0.171875 -0.0859375 0.140625 -0.140625 C 0.109375 -0.191406 0.09375 -0.257812 0.09375 -0.34375 C 0.09375 -0.40625 0.109375 -0.460938 0.140625 -0.515625 C 0.171875 -0.566406 0.21875 -0.601562 0.28125 -0.625 C 0.34375 -0.65625 0.421875 -0.679688 0.515625 -0.703125 C 0.585938 -0.710938 0.640625 -0.722656 0.671875 -0.734375 C 0.710938 -0.753906 0.738281 -0.769531 0.75 -0.78125 C 0.769531 -0.800781 0.78125 -0.828125 0.78125 -0.859375 C 0.78125 -0.890625 0.765625 -0.914062 0.734375 -0.9375 C 0.710938 -0.957031 0.671875 -0.96875 0.609375 -0.96875 C 0.535156 -0.96875 0.46875 -0.953125 0.40625 -0.921875 C 0.351562 -0.890625 0.304688 -0.851562 0.265625 -0.8125 L 0.234375 -0.8125 L 0.125 -1 C 0.175781 -1.0625 0.242188 -1.109375 0.328125 -1.140625 C 0.421875 -1.179688 0.519531 -1.203125 0.625 -1.203125 C 0.78125 -1.203125 0.890625 -1.171875 0.953125 -1.109375 C 1.023438 -1.046875 1.0625 -0.953125 1.0625 -0.828125 L 1.0625 -0.3125 C 1.0625 -0.257812 1.085938 -0.234375 1.140625 -0.234375 C 1.160156 -0.234375 1.175781 -0.234375 1.1875 -0.234375 L 1.203125 -0.234375 L 1.234375 -0.03125 C 1.210938 -0.0195312 1.1875 -0.0078125 1.15625 0 C 1.125 0.0078125 1.09375 0.015625 1.0625 0.015625 C 0.988281 0.015625 0.929688 0 0.890625 -0.03125 C 0.847656 -0.0625 0.820312 -0.101562 0.8125 -0.15625 L 0.78125 -0.15625 C 0.726562 -0.0390625 0.625 0.015625 0.46875 0.015625 Z M 0.5625 -0.203125 C 0.625 -0.203125 0.675781 -0.222656 0.71875 -0.265625 C 0.757812 -0.316406 0.78125 -0.382812 0.78125 -0.46875 L 0.78125 -0.578125 L 0.765625 -0.59375 C 0.742188 -0.570312 0.71875 -0.554688 0.6875 -0.546875 C 0.664062 -0.535156 0.625 -0.523438 0.5625 -0.515625 C 0.5 -0.503906 0.453125 -0.484375 0.421875 -0.453125 C 0.398438 -0.429688 0.390625 -0.398438 0.390625 -0.359375 C 0.390625 -0.304688 0.398438 -0.265625 0.421875 -0.234375 C 0.453125 -0.210938 0.5 -0.203125 0.5625 -0.203125 Z M 0.5625 -0.203125 "/></g></g></g><g fill="#000000" fill-opacity="1"><g transform="translate(9.867186, 24.252081)"><g><path d="M 0.171875 0 L 0.171875 -1.1875 L 0.453125 -1.1875 L 0.453125 -1.015625 L 0.484375 -1 C 0.554688 -1.132812 0.675781 -1.203125 0.84375 -1.203125 C 0.976562 -1.203125 1.078125 -1.164062 1.140625 -1.09375 C 1.203125 -1.019531 1.234375 -0.910156 1.234375 -0.765625 L 1.234375 0 L 0.9375 0 L 0.9375 -0.734375 C 0.9375 -0.816406 0.921875 -0.875 0.890625 -0.90625 C 0.859375 -0.9375 0.804688 -0.953125 0.734375 -0.953125 C 0.648438 -0.953125 0.582031 -0.925781 0.53125 -0.875 C 0.488281 -0.820312 0.46875 -0.734375 0.46875 -0.609375 L 0.46875 0 Z M 0.171875 0 "/></g></g></g><g fill="#000000" fill-opacity="1"><g transform="translate(11.259039, 24.252081)"><g><path d="M 0.6875 0.015625 C 0.570312 0.015625 0.46875 -0.00390625 0.375 -0.046875 C 0.289062 -0.0976562 0.222656 -0.164062 0.171875 -0.25 C 0.128906 -0.34375 0.109375 -0.457031 0.109375 -0.59375 C 0.109375 -0.71875 0.128906 -0.828125 0.171875 -0.921875 C 0.222656 -1.015625 0.289062 -1.082031 0.375 -1.125 C 0.46875 -1.175781 0.570312 -1.203125 0.6875 -1.203125 C 0.9375 -1.203125 1.097656 -1.113281 1.171875 -0.9375 L 0.96875 -0.796875 L 0.9375 -0.796875 C 0.914062 -0.847656 0.882812 -0.882812 0.84375 -0.90625 C 0.800781 -0.9375 0.75 -0.953125 0.6875 -0.953125 C 0.601562 -0.953125 0.535156 -0.921875 0.484375 -0.859375 C 0.429688 -0.804688 0.40625 -0.71875 0.40625 -0.59375 C 0.40625 -0.46875 0.429688 -0.375 0.484375 -0.3125 C 0.535156 -0.257812 0.601562 -0.234375 0.6875 -0.234375 C 0.75 -0.234375 0.800781 -0.25 0.84375 -0.28125 C 0.894531 -0.3125 0.929688 -0.363281 0.953125 -0.4375 L 0.96875 -0.4375 L 1.1875 -0.3125 C 1.15625 -0.21875 1.097656 -0.140625 1.015625 -0.078125 C 0.929688 -0.015625 0.820312 0.015625 0.6875 0.015625 Z M 0.6875 0.015625 "/></g></g></g><g fill="#000000" fill-opacity="1"><g transform="translate(12.483915, 24.252081)"><g><path d="M 0.3125 -1.328125 C 0.257812 -1.328125 0.21875 -1.34375 0.1875 -1.375 C 0.15625 -1.40625 0.140625 -1.445312 0.140625 -1.5 C 0.140625 -1.550781 0.15625 -1.59375 0.1875 -1.625 C 0.21875 -1.65625 0.257812 -1.671875 0.3125 -1.671875 C 0.351562 -1.671875 0.382812 -1.664062 0.40625 -1.65625 C 0.4375 -1.644531 0.457031 -1.625 0.46875 -1.59375 C 0.488281 -1.5625 0.5 -1.53125 0.5 -1.5 C 0.5 -1.46875 0.488281 -1.4375 0.46875 -1.40625 C 0.457031 -1.382812 0.4375 -1.363281 0.40625 -1.34375 C 0.382812 -1.332031 0.351562 -1.328125 0.3125 -1.328125 Z M 0.171875 0 L 0.171875 -1.1875 L 0.46875 -1.1875 L 0.46875 0 Z M 0.171875 0 "/></g></g></g><g fill="#000000" fill-opacity="1"><g transform="translate(13.123823, 24.252081)"><g><path d="M 0.46875 0.015625 C 0.382812 0.015625 0.316406 0.00390625 0.265625 -0.015625 C 0.210938 -0.046875 0.171875 -0.0859375 0.140625 -0.140625 C 0.109375 -0.191406 0.09375 -0.257812 0.09375 -0.34375 C 0.09375 -0.40625 0.109375 -0.460938 0.140625 -0.515625 C 0.171875 -0.566406 0.21875 -0.601562 0.28125 -0.625 C 0.34375 -0.65625 0.421875 -0.679688 0.515625 -0.703125 C 0.585938 -0.710938 0.640625 -0.722656 0.671875 -0.734375 C 0.710938 -0.753906 0.738281 -0.769531 0.75 -0.78125 C 0.769531 -0.800781 0.78125 -0.828125 0.78125 -0.859375 C 0.78125 -0.890625 0.765625 -0.914062 0.734375 -0.9375 C 0.710938 -0.957031 0.671875 -0.96875 0.609375 -0.96875 C 0.535156 -0.96875 0.46875 -0.953125 0.40625 -0.921875 C 0.351562 -0.890625 0.304688 -0.851562 0.265625 -0.8125 L 0.234375 -0.8125 L 0.125 -1 C 0.175781 -1.0625 0.242188 -1.109375 0.328125 -1.140625 C 0.421875 -1.179688 0.519531 -1.203125 0.625 -1.203125 C 0.78125 -1.203125 0.890625 -1.171875 0.953125 -1.109375 C 1.023438 -1.046875 1.0625 -0.953125 1.0625 -0.828125 L 1.0625 -0.3125 C 1.0625 -0.257812 1.085938 -0.234375 1.140625 -0.234375 C 1.160156 -0.234375 1.175781 -0.234375 1.1875 -0.234375 L 1.203125 -0.234375 L 1.234375 -0.03125 C 1.210938 -0.0195312 1.1875 -0.0078125 1.15625 0 C 1.125 0.0078125 1.09375 0.015625 1.0625 0.015625 C 0.988281 0.015625 0.929688 0 0.890625 -0.03125 C 0.847656 -0.0625 0.820312 -0.101562 0.8125 -0.15625 L 0.78125 -0.15625 C 0.726562 -0.0390625 0.625 0.015625 0.46875 0.015625 Z M 0.5625 -0.203125 C 0.625 -0.203125 0.675781 -0.222656 0.71875 -0.265625 C 0.757812 -0.316406 0.78125 -0.382812 0.78125 -0.46875 L 0.78125 -0.578125 L 0.765625 -0.59375 C 0.742188 -0.570312 0.71875 -0.554688 0.6875 -0.546875 C 0.664062 -0.535156 0.625 -0.523438 0.5625 -0.515625 C 0.5 -0.503906 0.453125 -0.484375 0.421875 -0.453125 C 0.398438 -0.429688 0.390625 -0.398438 0.390625 -0.359375 C 0.390625 -0.304688 0.398438 -0.265625 0.421875 -0.234375 C 0.453125 -0.210938 0.5 -0.203125 0.5625 -0.203125 Z M 0.5625 -0.203125 "/></g></g></g><g fill="#000000" fill-opacity="1"><g transform="translate(14.376708, 24.252081)"><g><path d="M 0.5 0.015625 C 0.382812 0.015625 0.296875 -0.0078125 0.234375 -0.0625 C 0.179688 -0.125 0.15625 -0.210938 0.15625 -0.328125 L 0.15625 -1.65625 L 0.46875 -1.65625 L 0.46875 -0.34375 C 0.46875 -0.269531 0.492188 -0.234375 0.546875 -0.234375 C 0.566406 -0.234375 0.585938 -0.234375 0.609375 -0.234375 L 0.625 -0.234375 L 0.65625 0 C 0.632812 0 0.609375 0 0.578125 0 C 0.554688 0.0078125 0.53125 0.015625 0.5 0.015625 Z M 0.5 0.015625 "/></g></g></g><g fill="#000000" fill-opacity="1"><g transform="translate(15.059707, 24.252081)"><g/></g></g><g fill="#000000" fill-opacity="1"><g transform="translate(15.580039, 24.252081)"><g><path d="M 0.703125 0.015625 C 0.585938 0.015625 0.488281 0.00390625 0.40625 -0.015625 C 0.320312 -0.046875 0.25 -0.0820312 0.1875 -0.125 C 0.132812 -0.164062 0.09375 -0.210938 0.0625 -0.265625 L 0.234375 -0.46875 L 0.265625 -0.46875 C 0.304688 -0.40625 0.363281 -0.351562 0.4375 -0.3125 C 0.507812 -0.269531 0.597656 -0.25 0.703125 -0.25 C 0.785156 -0.25 0.847656 -0.265625 0.890625 -0.296875 C 0.929688 -0.335938 0.953125 -0.382812 0.953125 -0.4375 C 0.953125 -0.476562 0.941406 -0.507812 0.921875 -0.53125 C 0.910156 -0.5625 0.890625 -0.582031 0.859375 -0.59375 C 0.828125 -0.613281 0.785156 -0.632812 0.734375 -0.65625 L 0.53125 -0.6875 C 0.382812 -0.726562 0.273438 -0.785156 0.203125 -0.859375 C 0.140625 -0.929688 0.109375 -1.023438 0.109375 -1.140625 C 0.109375 -1.234375 0.128906 -1.3125 0.171875 -1.375 C 0.222656 -1.445312 0.289062 -1.5 0.375 -1.53125 C 0.457031 -1.570312 0.554688 -1.59375 0.671875 -1.59375 C 0.796875 -1.59375 0.898438 -1.578125 0.984375 -1.546875 C 1.078125 -1.515625 1.148438 -1.46875 1.203125 -1.40625 L 1.046875 -1.1875 L 1.03125 -1.1875 C 0.976562 -1.238281 0.921875 -1.273438 0.859375 -1.296875 C 0.804688 -1.316406 0.742188 -1.328125 0.671875 -1.328125 C 0.585938 -1.328125 0.523438 -1.3125 0.484375 -1.28125 C 0.441406 -1.25 0.421875 -1.207031 0.421875 -1.15625 C 0.421875 -1.101562 0.4375 -1.0625 0.46875 -1.03125 C 0.5 -1.007812 0.550781 -0.988281 0.625 -0.96875 L 0.828125 -0.921875 C 0.984375 -0.890625 1.09375 -0.835938 1.15625 -0.765625 C 1.226562 -0.691406 1.265625 -0.59375 1.265625 -0.46875 C 1.265625 -0.363281 1.242188 -0.273438 1.203125 -0.203125 C 1.160156 -0.128906 1.097656 -0.0703125 1.015625 -0.03125 C 0.929688 0 0.828125 0.015625 0.703125 0.015625 Z M 0.703125 0.015625 "/></g></g></g><g fill="#000000" fill-opacity="1"><g transform="translate(16.933109, 24.252081)"><g><path d="M 1.171875 -0.53125 L 0.40625 -0.53125 C 0.414062 -0.425781 0.445312 -0.347656 0.5 -0.296875 C 0.550781 -0.253906 0.617188 -0.234375 0.703125 -0.234375 C 0.773438 -0.234375 0.832031 -0.242188 0.875 -0.265625 C 0.914062 -0.296875 0.945312 -0.335938 0.96875 -0.390625 L 1 -0.390625 L 1.1875 -0.25 C 1.15625 -0.164062 1.097656 -0.0976562 1.015625 -0.046875 C 0.941406 -0.00390625 0.835938 0.015625 0.703125 0.015625 C 0.578125 0.015625 0.46875 -0.00390625 0.375 -0.046875 C 0.289062 -0.0976562 0.222656 -0.164062 0.171875 -0.25 C 0.128906 -0.34375 0.109375 -0.457031 0.109375 -0.59375 C 0.109375 -0.726562 0.132812 -0.84375 0.1875 -0.9375 C 0.238281 -1.03125 0.304688 -1.097656 0.390625 -1.140625 C 0.472656 -1.179688 0.570312 -1.203125 0.6875 -1.203125 C 0.851562 -1.203125 0.976562 -1.15625 1.0625 -1.0625 C 1.15625 -0.976562 1.203125 -0.851562 1.203125 -0.6875 C 1.203125 -0.625 1.195312 -0.570312 1.1875 -0.53125 Z M 0.921875 -0.71875 C 0.910156 -0.8125 0.882812 -0.878906 0.84375 -0.921875 C 0.8125 -0.960938 0.757812 -0.984375 0.6875 -0.984375 C 0.53125 -0.984375 0.441406 -0.894531 0.421875 -0.71875 Z M 0.921875 -0.71875 "/></g></g></g><g fill="#000000" fill-opacity="1"><g transform="translate(18.224777, 24.252081)"><g><path d="M 0.171875 0 L 0.171875 -1.1875 L 0.453125 -1.1875 L 0.453125 -1.015625 L 0.484375 -1 C 0.515625 -1.070312 0.550781 -1.125 0.59375 -1.15625 C 0.644531 -1.1875 0.703125 -1.203125 0.765625 -1.203125 C 0.828125 -1.203125 0.878906 -1.1875 0.921875 -1.15625 L 0.875 -0.90625 L 0.84375 -0.90625 C 0.820312 -0.90625 0.800781 -0.90625 0.78125 -0.90625 C 0.769531 -0.914062 0.75 -0.921875 0.71875 -0.921875 C 0.632812 -0.921875 0.570312 -0.890625 0.53125 -0.828125 C 0.488281 -0.773438 0.46875 -0.6875 0.46875 -0.5625 L 0.46875 0 Z M 0.171875 0 "/></g></g></g><g fill="#000000" fill-opacity="1"><g transform="translate(19.156632, 24.252081)"><g><path d="M 0.8125 0 L 0.46875 0 L 0.015625 -1.1875 L 0.328125 -1.1875 L 0.625 -0.34375 L 0.65625 -0.34375 L 0.953125 -1.1875 L 1.25 -1.1875 Z M 0.8125 0 "/></g></g></g><g fill="#000000" fill-opacity="1"><g transform="translate(20.434292, 24.252081)"><g><path d="M 0.3125 -1.328125 C 0.257812 -1.328125 0.21875 -1.34375 0.1875 -1.375 C 0.15625 -1.40625 0.140625 -1.445312 0.140625 -1.5 C 0.140625 -1.550781 0.15625 -1.59375 0.1875 -1.625 C 0.21875 -1.65625 0.257812 -1.671875 0.3125 -1.671875 C 0.351562 -1.671875 0.382812 -1.664062 0.40625 -1.65625 C 0.4375 -1.644531 0.457031 -1.625 0.46875 -1.59375 C 0.488281 -1.5625 0.5 -1.53125 0.5 -1.5 C 0.5 -1.46875 0.488281 -1.4375 0.46875 -1.40625 C 0.457031 -1.382812 0.4375 -1.363281 0.40625 -1.34375 C 0.382812 -1.332031 0.351562 -1.328125 0.3125 -1.328125 Z M 0.171875 0 L 0.171875 -1.1875 L 0.46875 -1.1875 L 0.46875 0 Z M 0.171875 0 "/></g></g></g><g fill="#000000" fill-opacity="1"><g transform="translate(21.0742, 24.252081)"><g><path d="M 0.6875 0.015625 C 0.570312 0.015625 0.46875 -0.00390625 0.375 -0.046875 C 0.289062 -0.0976562 0.222656 -0.164062 0.171875 -0.25 C 0.128906 -0.34375 0.109375 -0.457031 0.109375 -0.59375 C 0.109375 -0.71875 0.128906 -0.828125 0.171875 -0.921875 C 0.222656 -1.015625 0.289062 -1.082031 0.375 -1.125 C 0.46875 -1.175781 0.570312 -1.203125 0.6875 -1.203125 C 0.9375 -1.203125 1.097656 -1.113281 1.171875 -0.9375 L 0.96875 -0.796875 L 0.9375 -0.796875 C 0.914062 -0.847656 0.882812 -0.882812 0.84375 -0.90625 C 0.800781 -0.9375 0.75 -0.953125 0.6875 -0.953125 C 0.601562 -0.953125 0.535156 -0.921875 0.484375 -0.859375 C 0.429688 -0.804688 0.40625 -0.71875 0.40625 -0.59375 C 0.40625 -0.46875 0.429688 -0.375 0.484375 -0.3125 C 0.535156 -0.257812 0.601562 -0.234375 0.6875 -0.234375 C 0.75 -0.234375 0.800781 -0.25 0.84375 -0.28125 C 0.894531 -0.3125 0.929688 -0.363281 0.953125 -0.4375 L 0.96875 -0.4375 L 1.1875 -0.3125 C 1.15625 -0.21875 1.097656 -0.140625 1.015625 -0.078125 C 0.929688 -0.015625 0.820312 0.015625 0.6875 0.015625 Z M 0.6875 0.015625 "/></g></g></g><g fill="#000000" fill-opacity="1"><g transform="translate(22.299076, 24.252081)"><g><path d="M 1.171875 -0.53125 L 0.40625 -0.53125 C 0.414062 -0.425781 0.445312 -0.347656 0.5 -0.296875 C 0.550781 -0.253906 0.617188 -0.234375 0.703125 -0.234375 C 0.773438 -0.234375 0.832031 -0.242188 0.875 -0.265625 C 0.914062 -0.296875 0.945312 -0.335938 0.96875 -0.390625 L 1 -0.390625 L 1.1875 -0.25 C 1.15625 -0.164062 1.097656 -0.0976562 1.015625 -0.046875 C 0.941406 -0.00390625 0.835938 0.015625 0.703125 0.015625 C 0.578125 0.015625 0.46875 -0.00390625 0.375 -0.046875 C 0.289062 -0.0976562 0.222656 -0.164062 0.171875 -0.25 C 0.128906 -0.34375 0.109375 -0.457031 0.109375 -0.59375 C 0.109375 -0.726562 0.132812 -0.84375 0.1875 -0.9375 C 0.238281 -1.03125 0.304688 -1.097656 0.390625 -1.140625 C 0.472656 -1.179688 0.570312 -1.203125 0.6875 -1.203125 C 0.851562 -1.203125 0.976562 -1.15625 1.0625 -1.0625 C 1.15625 -0.976562 1.203125 -0.851562 1.203125 -0.6875 C 1.203125 -0.625 1.195312 -0.570312 1.1875 -0.53125 Z M 0.921875 -0.71875 C 0.910156 -0.8125 0.882812 -0.878906 0.84375 -0.921875 C 0.8125 -0.960938 0.757812 -0.984375 0.6875 -0.984375 C 0.53125 -0.984375 0.441406 -0.894531 0.421875 -0.71875 Z M 0.921875 -0.71875 "/></g></g></g><g fill="#000000" fill-opacity="1"><g transform="translate(23.590744, 24.252081)"><g><path d="M 0.5625 0.015625 C 0.476562 0.015625 0.398438 0.0078125 0.328125 0 C 0.265625 -0.0195312 0.207031 -0.046875 0.15625 -0.078125 C 0.113281 -0.117188 0.078125 -0.160156 0.046875 -0.203125 L 0.21875 -0.375 L 0.234375 -0.375 C 0.273438 -0.320312 0.320312 -0.28125 0.375 -0.25 C 0.4375 -0.226562 0.5 -0.21875 0.5625 -0.21875 C 0.613281 -0.21875 0.65625 -0.226562 0.6875 -0.25 C 0.71875 -0.269531 0.734375 -0.300781 0.734375 -0.34375 C 0.734375 -0.375 0.722656 -0.398438 0.703125 -0.421875 C 0.679688 -0.441406 0.644531 -0.457031 0.59375 -0.46875 L 0.4375 -0.5 C 0.320312 -0.53125 0.238281 -0.570312 0.1875 -0.625 C 0.132812 -0.6875 0.109375 -0.757812 0.109375 -0.84375 C 0.109375 -0.914062 0.125 -0.976562 0.15625 -1.03125 C 0.195312 -1.09375 0.25 -1.132812 0.3125 -1.15625 C 0.382812 -1.1875 0.46875 -1.203125 0.5625 -1.203125 C 0.664062 -1.203125 0.75 -1.1875 0.8125 -1.15625 C 0.882812 -1.125 0.941406 -1.085938 0.984375 -1.046875 L 0.828125 -0.859375 L 0.8125 -0.859375 C 0.769531 -0.898438 0.726562 -0.925781 0.6875 -0.9375 C 0.65625 -0.957031 0.613281 -0.96875 0.5625 -0.96875 C 0.4375 -0.96875 0.375 -0.929688 0.375 -0.859375 C 0.375 -0.828125 0.382812 -0.800781 0.40625 -0.78125 C 0.4375 -0.769531 0.476562 -0.757812 0.53125 -0.75 L 0.671875 -0.703125 C 0.796875 -0.679688 0.882812 -0.640625 0.9375 -0.578125 C 0.988281 -0.523438 1.015625 -0.453125 1.015625 -0.359375 C 1.015625 -0.285156 0.992188 -0.21875 0.953125 -0.15625 C 0.921875 -0.101562 0.867188 -0.0625 0.796875 -0.03125 C 0.734375 0 0.65625 0.015625 0.5625 0.015625 Z M 0.5625 0.015625 "/></g></g></g><g fill="#000000" fill-opacity="1"><g transform="translate(2.967039, 27.150654)"><g><path d="M 0.859375 0.015625 C 0.710938 0.015625 0.582031 -0.0078125 0.46875 -0.0625 C 0.363281 -0.125 0.28125 -0.210938 0.21875 -0.328125 C 0.15625 -0.453125 0.125 -0.601562 0.125 -0.78125 C 0.125 -0.957031 0.15625 -1.109375 0.21875 -1.234375 C 0.28125 -1.359375 0.363281 -1.445312 0.46875 -1.5 C 0.582031 -1.5625 0.710938 -1.59375 0.859375 -1.59375 C 1.015625 -1.59375 1.144531 -1.5625 1.25 -1.5 C 1.351562 -1.445312 1.425781 -1.359375 1.46875 -1.234375 L 1.25 -1.09375 L 1.21875 -1.09375 C 1.1875 -1.175781 1.140625 -1.234375 1.078125 -1.265625 C 1.023438 -1.304688 0.953125 -1.328125 0.859375 -1.328125 C 0.722656 -1.328125 0.617188 -1.28125 0.546875 -1.1875 C 0.472656 -1.101562 0.4375 -0.96875 0.4375 -0.78125 C 0.4375 -0.59375 0.472656 -0.457031 0.546875 -0.375 C 0.617188 -0.289062 0.722656 -0.25 0.859375 -0.25 C 1.066406 -0.25 1.191406 -0.347656 1.234375 -0.546875 L 1.265625 -0.546875 L 1.484375 -0.421875 C 1.441406 -0.273438 1.367188 -0.164062 1.265625 -0.09375 C 1.160156 -0.0195312 1.023438 0.015625 0.859375 0.015625 Z M 0.859375 0.015625 "/></g></g></g><g fill="#000000" fill-opacity="1"><g transform="translate(4.511866, 27.150654)"><g><path d="M 0.6875 0.015625 C 0.570312 0.015625 0.46875 -0.00390625 0.375 -0.046875 C 0.289062 -0.0976562 0.222656 -0.164062 0.171875 -0.25 C 0.128906 -0.34375 0.109375 -0.457031 0.109375 -0.59375 C 0.109375 -0.71875 0.128906 -0.828125 0.171875 -0.921875 C 0.222656 -1.015625 0.289062 -1.082031 0.375 -1.125 C 0.46875 -1.175781 0.570312 -1.203125 0.6875 -1.203125 C 0.800781 -1.203125 0.898438 -1.175781 0.984375 -1.125 C 1.078125 -1.082031 1.148438 -1.015625 1.203125 -0.921875 C 1.253906 -0.828125 1.28125 -0.71875 1.28125 -0.59375 C 1.28125 -0.457031 1.253906 -0.34375 1.203125 -0.25 C 1.148438 -0.164062 1.078125 -0.0976562 0.984375 -0.046875 C 0.898438 -0.00390625 0.800781 0.015625 0.6875 0.015625 Z M 0.6875 -0.234375 C 0.875 -0.234375 0.96875 -0.351562 0.96875 -0.59375 C 0.96875 -0.71875 0.941406 -0.804688 0.890625 -0.859375 C 0.847656 -0.921875 0.78125 -0.953125 0.6875 -0.953125 C 0.5 -0.953125 0.40625 -0.832031 0.40625 -0.59375 C 0.40625 -0.351562 0.5 -0.234375 0.6875 -0.234375 Z M 0.6875 -0.234375 "/></g></g></g><g fill="#000000" fill-opacity="1"><g transform="translate(5.892945, 27.150654)"><g><path d="M 0.171875 0 L 0.171875 -1.1875 L 0.453125 -1.1875 L 0.453125 -1.03125 L 0.484375 -1.015625 C 0.515625 -1.085938 0.554688 -1.132812 0.609375 -1.15625 C 0.660156 -1.1875 0.726562 -1.203125 0.8125 -1.203125 C 0.90625 -1.203125 0.976562 -1.1875 1.03125 -1.15625 C 1.082031 -1.125 1.125 -1.070312 1.15625 -1 L 1.171875 -1 C 1.210938 -1.070312 1.257812 -1.125 1.3125 -1.15625 C 1.375 -1.1875 1.445312 -1.203125 1.53125 -1.203125 C 1.78125 -1.203125 1.90625 -1.066406 1.90625 -0.796875 L 1.90625 0 L 1.609375 0 L 1.609375 -0.765625 C 1.609375 -0.828125 1.59375 -0.875 1.5625 -0.90625 C 1.53125 -0.9375 1.484375 -0.953125 1.421875 -0.953125 C 1.265625 -0.953125 1.1875 -0.84375 1.1875 -0.625 L 1.1875 0 L 0.890625 0 L 0.890625 -0.765625 C 0.890625 -0.828125 0.875 -0.875 0.84375 -0.90625 C 0.8125 -0.9375 0.769531 -0.953125 0.71875 -0.953125 C 0.632812 -0.953125 0.570312 -0.925781 0.53125 -0.875 C 0.488281 -0.820312 0.46875 -0.742188 0.46875 -0.640625 L 0.46875 0 Z M 0.171875 0 "/></g></g></g><g fill="#000000" fill-opacity="1"><g transform="translate(7.948405, 27.150654)"><g><path d="M 0.171875 0 L 0.171875 -1.1875 L 0.453125 -1.1875 L 0.453125 -1.03125 L 0.484375 -1.015625 C 0.515625 -1.085938 0.554688 -1.132812 0.609375 -1.15625 C 0.660156 -1.1875 0.726562 -1.203125 0.8125 -1.203125 C 0.90625 -1.203125 0.976562 -1.1875 1.03125 -1.15625 C 1.082031 -1.125 1.125 -1.070312 1.15625 -1 L 1.171875 -1 C 1.210938 -1.070312 1.257812 -1.125 1.3125 -1.15625 C 1.375 -1.1875 1.445312 -1.203125 1.53125 -1.203125 C 1.78125 -1.203125 1.90625 -1.066406 1.90625 -0.796875 L 1.90625 0 L 1.609375 0 L 1.609375 -0.765625 C 1.609375 -0.828125 1.59375 -0.875 1.5625 -0.90625 C 1.53125 -0.9375 1.484375 -0.953125 1.421875 -0.953125 C 1.265625 -0.953125 1.1875 -0.84375 1.1875 -0.625 L 1.1875 0 L 0.890625 0 L 0.890625 -0.765625 C 0.890625 -0.828125 0.875 -0.875 0.84375 -0.90625 C 0.8125 -0.9375 0.769531 -0.953125 0.71875 -0.953125 C 0.632812 -0.953125 0.570312 -0.925781 0.53125 -0.875 C 0.488281 -0.820312 0.46875 -0.742188 0.46875 -0.640625 L 0.46875 0 Z M 0.171875 0 "/></g></g></g><g fill="#000000" fill-opacity="1"><g transform="translate(10.003866, 27.150654)"><g><path d="M 0.3125 -1.328125 C 0.257812 -1.328125 0.21875 -1.34375 0.1875 -1.375 C 0.15625 -1.40625 0.140625 -1.445312 0.140625 -1.5 C 0.140625 -1.550781 0.15625 -1.59375 0.1875 -1.625 C 0.21875 -1.65625 0.257812 -1.671875 0.3125 -1.671875 C 0.351562 -1.671875 0.382812 -1.664062 0.40625 -1.65625 C 0.4375 -1.644531 0.457031 -1.625 0.46875 -1.59375 C 0.488281 -1.5625 0.5 -1.53125 0.5 -1.5 C 0.5 -1.46875 0.488281 -1.4375 0.46875 -1.40625 C 0.457031 -1.382812 0.4375 -1.363281 0.40625 -1.34375 C 0.382812 -1.332031 0.351562 -1.328125 0.3125 -1.328125 Z M 0.171875 0 L 0.171875 -1.1875 L 0.46875 -1.1875 L 0.46875 0 Z M 0.171875 0 "/></g></g></g><g fill="#000000" fill-opacity="1"><g transform="translate(10.643773, 27.150654)"><g><path d="M 0.5625 0.015625 C 0.476562 0.015625 0.398438 0.0078125 0.328125 0 C 0.265625 -0.0195312 0.207031 -0.046875 0.15625 -0.078125 C 0.113281 -0.117188 0.078125 -0.160156 0.046875 -0.203125 L 0.21875 -0.375 L 0.234375 -0.375 C 0.273438 -0.320312 0.320312 -0.28125 0.375 -0.25 C 0.4375 -0.226562 0.5 -0.21875 0.5625 -0.21875 C 0.613281 -0.21875 0.65625 -0.226562 0.6875 -0.25 C 0.71875 -0.269531 0.734375 -0.300781 0.734375 -0.34375 C 0.734375 -0.375 0.722656 -0.398438 0.703125 -0.421875 C 0.679688 -0.441406 0.644531 -0.457031 0.59375 -0.46875 L 0.4375 -0.5 C 0.320312 -0.53125 0.238281 -0.570312 0.1875 -0.625 C 0.132812 -0.6875 0.109375 -0.757812 0.109375 -0.84375 C 0.109375 -0.914062 0.125 -0.976562 0.15625 -1.03125 C 0.195312 -1.09375 0.25 -1.132812 0.3125 -1.15625 C 0.382812 -1.1875 0.46875 -1.203125 0.5625 -1.203125 C 0.664062 -1.203125 0.75 -1.1875 0.8125 -1.15625 C 0.882812 -1.125 0.941406 -1.085938 0.984375 -1.046875 L 0.828125 -0.859375 L 0.8125 -0.859375 C 0.769531 -0.898438 0.726562 -0.925781 0.6875 -0.9375 C 0.65625 -0.957031 0.613281 -0.96875 0.5625 -0.96875 C 0.4375 -0.96875 0.375 -0.929688 0.375 -0.859375 C 0.375 -0.828125 0.382812 -0.800781 0.40625 -0.78125 C 0.4375 -0.769531 0.476562 -0.757812 0.53125 -0.75 L 0.671875 -0.703125 C 0.796875 -0.679688 0.882812 -0.640625 0.9375 -0.578125 C 0.988281 -0.523438 1.015625 -0.453125 1.015625 -0.359375 C 1.015625 -0.285156 0.992188 -0.21875 0.953125 -0.15625 C 0.921875 -0.101562 0.867188 -0.0625 0.796875 -0.03125 C 0.734375 0 0.65625 0.015625 0.5625 0.015625 Z M 0.5625 0.015625 "/></g></g></g><g fill="#000000" fill-opacity="1"><g transform="translate(11.739375, 27.150654)"><g><path d="M 0.5625 0.015625 C 0.476562 0.015625 0.398438 0.0078125 0.328125 0 C 0.265625 -0.0195312 0.207031 -0.046875 0.15625 -0.078125 C 0.113281 -0.117188 0.078125 -0.160156 0.046875 -0.203125 L 0.21875 -0.375 L 0.234375 -0.375 C 0.273438 -0.320312 0.320312 -0.28125 0.375 -0.25 C 0.4375 -0.226562 0.5 -0.21875 0.5625 -0.21875 C 0.613281 -0.21875 0.65625 -0.226562 0.6875 -0.25 C 0.71875 -0.269531 0.734375 -0.300781 0.734375 -0.34375 C 0.734375 -0.375 0.722656 -0.398438 0.703125 -0.421875 C 0.679688 -0.441406 0.644531 -0.457031 0.59375 -0.46875 L 0.4375 -0.5 C 0.320312 -0.53125 0.238281 -0.570312 0.1875 -0.625 C 0.132812 -0.6875 0.109375 -0.757812 0.109375 -0.84375 C 0.109375 -0.914062 0.125 -0.976562 0.15625 -1.03125 C 0.195312 -1.09375 0.25 -1.132812 0.3125 -1.15625 C 0.382812 -1.1875 0.46875 -1.203125 0.5625 -1.203125 C 0.664062 -1.203125 0.75 -1.1875 0.8125 -1.15625 C 0.882812 -1.125 0.941406 -1.085938 0.984375 -1.046875 L 0.828125 -0.859375 L 0.8125 -0.859375 C 0.769531 -0.898438 0.726562 -0.925781 0.6875 -0.9375 C 0.65625 -0.957031 0.613281 -0.96875 0.5625 -0.96875 C 0.4375 -0.96875 0.375 -0.929688 0.375 -0.859375 C 0.375 -0.828125 0.382812 -0.800781 0.40625 -0.78125 C 0.4375 -0.769531 0.476562 -0.757812 0.53125 -0.75 L 0.671875 -0.703125 C 0.796875 -0.679688 0.882812 -0.640625 0.9375 -0.578125 C 0.988281 -0.523438 1.015625 -0.453125 1.015625 -0.359375 C 1.015625 -0.285156 0.992188 -0.21875 0.953125 -0.15625 C 0.921875 -0.101562 0.867188 -0.0625 0.796875 -0.03125 C 0.734375 0 0.65625 0.015625 0.5625 0.015625 Z M 0.5625 0.015625 "/></g></g></g><g fill="#000000" fill-opacity="1"><g transform="translate(12.834977, 27.150654)"><g><path d="M 0.3125 -1.328125 C 0.257812 -1.328125 0.21875 -1.34375 0.1875 -1.375 C 0.15625 -1.40625 0.140625 -1.445312 0.140625 -1.5 C 0.140625 -1.550781 0.15625 -1.59375 0.1875 -1.625 C 0.21875 -1.65625 0.257812 -1.671875 0.3125 -1.671875 C 0.351562 -1.671875 0.382812 -1.664062 0.40625 -1.65625 C 0.4375 -1.644531 0.457031 -1.625 0.46875 -1.59375 C 0.488281 -1.5625 0.5 -1.53125 0.5 -1.5 C 0.5 -1.46875 0.488281 -1.4375 0.46875 -1.40625 C 0.457031 -1.382812 0.4375 -1.363281 0.40625 -1.34375 C 0.382812 -1.332031 0.351562 -1.328125 0.3125 -1.328125 Z M 0.171875 0 L 0.171875 -1.1875 L 0.46875 -1.1875 L 0.46875 0 Z M 0.171875 0 "/></g></g></g><g fill="#000000" fill-opacity="1"><g transform="translate(13.474885, 27.150654)"><g><path d="M 0.6875 0.015625 C 0.570312 0.015625 0.46875 -0.00390625 0.375 -0.046875 C 0.289062 -0.0976562 0.222656 -0.164062 0.171875 -0.25 C 0.128906 -0.34375 0.109375 -0.457031 0.109375 -0.59375 C 0.109375 -0.71875 0.128906 -0.828125 0.171875 -0.921875 C 0.222656 -1.015625 0.289062 -1.082031 0.375 -1.125 C 0.46875 -1.175781 0.570312 -1.203125 0.6875 -1.203125 C 0.800781 -1.203125 0.898438 -1.175781 0.984375 -1.125 C 1.078125 -1.082031 1.148438 -1.015625 1.203125 -0.921875 C 1.253906 -0.828125 1.28125 -0.71875 1.28125 -0.59375 C 1.28125 -0.457031 1.253906 -0.34375 1.203125 -0.25 C 1.148438 -0.164062 1.078125 -0.0976562 0.984375 -0.046875 C 0.898438 -0.00390625 0.800781 0.015625 0.6875 0.015625 Z M 0.6875 -0.234375 C 0.875 -0.234375 0.96875 -0.351562 0.96875 -0.59375 C 0.96875 -0.71875 0.941406 -0.804688 0.890625 -0.859375 C 0.847656 -0.921875 0.78125 -0.953125 0.6875 -0.953125 C 0.5 -0.953125 0.40625 -0.832031 0.40625 -0.59375 C 0.40625 -0.351562 0.5 -0.234375 0.6875 -0.234375 Z M 0.6875 -0.234375 "/></g></g></g><g fill="#000000" fill-opacity="1"><g transform="translate(14.855964, 27.150654)"><g><path d="M 0.171875 0 L 0.171875 -1.1875 L 0.453125 -1.1875 L 0.453125 -1.015625 L 0.484375 -1 C 0.554688 -1.132812 0.675781 -1.203125 0.84375 -1.203125 C 0.976562 -1.203125 1.078125 -1.164062 1.140625 -1.09375 C 1.203125 -1.019531 1.234375 -0.910156 1.234375 -0.765625 L 1.234375 0 L 0.9375 0 L 0.9375 -0.734375 C 0.9375 -0.816406 0.921875 -0.875 0.890625 -0.90625 C 0.859375 -0.9375 0.804688 -0.953125 0.734375 -0.953125 C 0.648438 -0.953125 0.582031 -0.925781 0.53125 -0.875 C 0.488281 -0.820312 0.46875 -0.734375 0.46875 -0.609375 L 0.46875 0 Z M 0.171875 0 "/></g></g></g><g fill="#000000" fill-opacity="1"><g transform="translate(16.247817, 27.150654)"><g/></g></g><g fill="#000000" fill-opacity="1"><g transform="translate(16.768149, 27.150654)"><g><path d="M 0.484375 0 L 0.203125 0 L 0.203125 -1.578125 L 0.609375 -1.578125 L 1.015625 -0.421875 L 1.03125 -0.421875 L 1.421875 -1.578125 L 1.828125 -1.578125 L 1.828125 0 L 1.53125 0 L 1.53125 -1.046875 L 1.5 -1.046875 L 1.140625 0 L 0.875 0 L 0.515625 -1.046875 L 0.484375 -1.046875 Z M 0.484375 0 "/></g></g></g><g fill="#000000" fill-opacity="1"><g transform="translate(18.800989, 27.150654)"><g><path d="M 0.46875 0.015625 C 0.382812 0.015625 0.316406 0.00390625 0.265625 -0.015625 C 0.210938 -0.046875 0.171875 -0.0859375 0.140625 -0.140625 C 0.109375 -0.191406 0.09375 -0.257812 0.09375 -0.34375 C 0.09375 -0.40625 0.109375 -0.460938 0.140625 -0.515625 C 0.171875 -0.566406 0.21875 -0.601562 0.28125 -0.625 C 0.34375 -0.65625 0.421875 -0.679688 0.515625 -0.703125 C 0.585938 -0.710938 0.640625 -0.722656 0.671875 -0.734375 C 0.710938 -0.753906 0.738281 -0.769531 0.75 -0.78125 C 0.769531 -0.800781 0.78125 -0.828125 0.78125 -0.859375 C 0.78125 -0.890625 0.765625 -0.914062 0.734375 -0.9375 C 0.710938 -0.957031 0.671875 -0.96875 0.609375 -0.96875 C 0.535156 -0.96875 0.46875 -0.953125 0.40625 -0.921875 C 0.351562 -0.890625 0.304688 -0.851562 0.265625 -0.8125 L 0.234375 -0.8125 L 0.125 -1 C 0.175781 -1.0625 0.242188 -1.109375 0.328125 -1.140625 C 0.421875 -1.179688 0.519531 -1.203125 0.625 -1.203125 C 0.78125 -1.203125 0.890625 -1.171875 0.953125 -1.109375 C 1.023438 -1.046875 1.0625 -0.953125 1.0625 -0.828125 L 1.0625 -0.3125 C 1.0625 -0.257812 1.085938 -0.234375 1.140625 -0.234375 C 1.160156 -0.234375 1.175781 -0.234375 1.1875 -0.234375 L 1.203125 -0.234375 L 1.234375 -0.03125 C 1.210938 -0.0195312 1.1875 -0.0078125 1.15625 0 C 1.125 0.0078125 1.09375 0.015625 1.0625 0.015625 C 0.988281 0.015625 0.929688 0 0.890625 -0.03125 C 0.847656 -0.0625 0.820312 -0.101562 0.8125 -0.15625 L 0.78125 -0.15625 C 0.726562 -0.0390625 0.625 0.015625 0.46875 0.015625 Z M 0.5625 -0.203125 C 0.625 -0.203125 0.675781 -0.222656 0.71875 -0.265625 C 0.757812 -0.316406 0.78125 -0.382812 0.78125 -0.46875 L 0.78125 -0.578125 L 0.765625 -0.59375 C 0.742188 -0.570312 0.71875 -0.554688 0.6875 -0.546875 C 0.664062 -0.535156 0.625 -0.523438 0.5625 -0.515625 C 0.5 -0.503906 0.453125 -0.484375 0.421875 -0.453125 C 0.398438 -0.429688 0.390625 -0.398438 0.390625 -0.359375 C 0.390625 -0.304688 0.398438 -0.265625 0.421875 -0.234375 C 0.453125 -0.210938 0.5 -0.203125 0.5625 -0.203125 Z M 0.5625 -0.203125 "/></g></g></g><g fill="#000000" fill-opacity="1"><g transform="translate(20.053875, 27.150654)"><g><path d="M 0.546875 0.015625 C 0.410156 0.015625 0.3125 -0.0195312 0.25 -0.09375 C 0.1875 -0.164062 0.15625 -0.269531 0.15625 -0.40625 L 0.15625 -1.1875 L 0.453125 -1.1875 L 0.453125 -0.4375 C 0.453125 -0.363281 0.46875 -0.3125 0.5 -0.28125 C 0.53125 -0.25 0.578125 -0.234375 0.640625 -0.234375 C 0.722656 -0.234375 0.785156 -0.257812 0.828125 -0.3125 C 0.878906 -0.363281 0.90625 -0.445312 0.90625 -0.5625 L 0.90625 -1.1875 L 1.203125 -1.1875 L 1.203125 0 L 0.921875 0 L 0.921875 -0.171875 L 0.890625 -0.171875 C 0.847656 -0.109375 0.800781 -0.0625 0.75 -0.03125 C 0.695312 0 0.628906 0.015625 0.546875 0.015625 Z M 0.546875 0.015625 "/></g></g></g><g fill="#000000" fill-opacity="1"><g transform="translate(21.428491, 27.150654)"><g><path d="M 0.171875 0 L 0.171875 -1.1875 L 0.453125 -1.1875 L 0.453125 -1.015625 L 0.484375 -1 C 0.515625 -1.070312 0.550781 -1.125 0.59375 -1.15625 C 0.644531 -1.1875 0.703125 -1.203125 0.765625 -1.203125 C 0.828125 -1.203125 0.878906 -1.1875 0.921875 -1.15625 L 0.875 -0.90625 L 0.84375 -0.90625 C 0.820312 -0.90625 0.800781 -0.90625 0.78125 -0.90625 C 0.769531 -0.914062 0.75 -0.921875 0.71875 -0.921875 C 0.632812 -0.921875 0.570312 -0.890625 0.53125 -0.828125 C 0.488281 -0.773438 0.46875 -0.6875 0.46875 -0.5625 L 0.46875 0 Z M 0.171875 0 "/></g></g></g><g fill="#000000" fill-opacity="1"><g transform="translate(22.360346, 27.150654)"><g><path d="M 0.3125 -1.328125 C 0.257812 -1.328125 0.21875 -1.34375 0.1875 -1.375 C 0.15625 -1.40625 0.140625 -1.445312 0.140625 -1.5 C 0.140625 -1.550781 0.15625 -1.59375 0.1875 -1.625 C 0.21875 -1.65625 0.257812 -1.671875 0.3125 -1.671875 C 0.351562 -1.671875 0.382812 -1.664062 0.40625 -1.65625 C 0.4375 -1.644531 0.457031 -1.625 0.46875 -1.59375 C 0.488281 -1.5625 0.5 -1.53125 0.5 -1.5 C 0.5 -1.46875 0.488281 -1.4375 0.46875 -1.40625 C 0.457031 -1.382812 0.4375 -1.363281 0.40625 -1.34375 C 0.382812 -1.332031 0.351562 -1.328125 0.3125 -1.328125 Z M 0.171875 0 L 0.171875 -1.1875 L 0.46875 -1.1875 L 0.46875 0 Z M 0.171875 0 "/></g></g></g><g fill="#000000" fill-opacity="1"><g transform="translate(23.000253, 27.150654)"><g><path d="M 0.8125 -0.28125 L 0.890625 -0.0625 C 0.859375 -0.03125 0.816406 -0.0078125 0.765625 0 C 0.722656 0.0078125 0.671875 0.015625 0.609375 0.015625 C 0.484375 0.015625 0.382812 -0.015625 0.3125 -0.078125 C 0.25 -0.148438 0.21875 -0.253906 0.21875 -0.390625 L 0.21875 -0.953125 L 0.03125 -0.953125 L 0.03125 -1.1875 L 0.21875 -1.1875 L 0.21875 -1.421875 L 0.515625 -1.46875 L 0.515625 -1.1875 L 0.84375 -1.1875 L 0.84375 -0.953125 L 0.515625 -0.953125 L 0.515625 -0.40625 C 0.515625 -0.351562 0.523438 -0.3125 0.546875 -0.28125 C 0.578125 -0.25 0.613281 -0.234375 0.65625 -0.234375 C 0.707031 -0.234375 0.753906 -0.25 0.796875 -0.28125 Z M 0.8125 -0.28125 "/></g></g></g><g fill="#000000" fill-opacity="1"><g transform="translate(23.92349, 27.150654)"><g><path d="M 0.3125 -1.328125 C 0.257812 -1.328125 0.21875 -1.34375 0.1875 -1.375 C 0.15625 -1.40625 0.140625 -1.445312 0.140625 -1.5 C 0.140625 -1.550781 0.15625 -1.59375 0.1875 -1.625 C 0.21875 -1.65625 0.257812 -1.671875 0.3125 -1.671875 C 0.351562 -1.671875 0.382812 -1.664062 0.40625 -1.65625 C 0.4375 -1.644531 0.457031 -1.625 0.46875 -1.59375 C 0.488281 -1.5625 0.5 -1.53125 0.5 -1.5 C 0.5 -1.46875 0.488281 -1.4375 0.46875 -1.40625 C 0.457031 -1.382812 0.4375 -1.363281 0.40625 -1.34375 C 0.382812 -1.332031 0.351562 -1.328125 0.3125 -1.328125 Z M 0.171875 0 L 0.171875 -1.1875 L 0.46875 -1.1875 L 0.46875 0 Z M 0.171875 0 "/></g></g></g><g fill="#000000" fill-opacity="1"><g transform="translate(24.563397, 27.150654)"><g><path d="M 0.546875 0.015625 C 0.410156 0.015625 0.3125 -0.0195312 0.25 -0.09375 C 0.1875 -0.164062 0.15625 -0.269531 0.15625 -0.40625 L 0.15625 -1.1875 L 0.453125 -1.1875 L 0.453125 -0.4375 C 0.453125 -0.363281 0.46875 -0.3125 0.5 -0.28125 C 0.53125 -0.25 0.578125 -0.234375 0.640625 -0.234375 C 0.722656 -0.234375 0.785156 -0.257812 0.828125 -0.3125 C 0.878906 -0.363281 0.90625 -0.445312 0.90625 -0.5625 L 0.90625 -1.1875 L 1.203125 -1.1875 L 1.203125 0 L 0.921875 0 L 0.921875 -0.171875 L 0.890625 -0.171875 C 0.847656 -0.109375 0.800781 -0.0625 0.75 -0.03125 C 0.695312 0 0.628906 0.015625 0.546875 0.015625 Z M 0.546875 0.015625 "/></g></g></g><g fill="#000000" fill-opacity="1"><g transform="translate(25.938013, 27.150654)"><g><path d="M 0.5625 0.015625 C 0.476562 0.015625 0.398438 0.0078125 0.328125 0 C 0.265625 -0.0195312 0.207031 -0.046875 0.15625 -0.078125 C 0.113281 -0.117188 0.078125 -0.160156 0.046875 -0.203125 L 0.21875 -0.375 L 0.234375 -0.375 C 0.273438 -0.320312 0.320312 -0.28125 0.375 -0.25 C 0.4375 -0.226562 0.5 -0.21875 0.5625 -0.21875 C 0.613281 -0.21875 0.65625 -0.226562 0.6875 -0.25 C 0.71875 -0.269531 0.734375 -0.300781 0.734375 -0.34375 C 0.734375 -0.375 0.722656 -0.398438 0.703125 -0.421875 C 0.679688 -0.441406 0.644531 -0.457031 0.59375 -0.46875 L 0.4375 -0.5 C 0.320312 -0.53125 0.238281 -0.570312 0.1875 -0.625 C 0.132812 -0.6875 0.109375 -0.757812 0.109375 -0.84375 C 0.109375 -0.914062 0.125 -0.976562 0.15625 -1.03125 C 0.195312 -1.09375 0.25 -1.132812 0.3125 -1.15625 C 0.382812 -1.1875 0.46875 -1.203125 0.5625 -1.203125 C 0.664062 -1.203125 0.75 -1.1875 0.8125 -1.15625 C 0.882812 -1.125 0.941406 -1.085938 0.984375 -1.046875 L 0.828125 -0.859375 L 0.8125 -0.859375 C 0.769531 -0.898438 0.726562 -0.925781 0.6875 -0.9375 C 0.65625 -0.957031 0.613281 -0.96875 0.5625 -0.96875 C 0.4375 -0.96875 0.375 -0.929688 0.375 -0.859375 C 0.375 -0.828125 0.382812 -0.800781 0.40625 -0.78125 C 0.4375 -0.769531 0.476562 -0.757812 0.53125 -0.75 L 0.671875 -0.703125 C 0.796875 -0.679688 0.882812 -0.640625 0.9375 -0.578125 C 0.988281 -0.523438 1.015625 -0.453125 1.015625 -0.359375 C 1.015625 -0.285156 0.992188 -0.21875 0.953125 -0.15625 C 0.921875 -0.101562 0.867188 -0.0625 0.796875 -0.03125 C 0.734375 0 0.65625 0.015625 0.5625 0.015625 Z M 0.5625 0.015625 "/></g></g></g></svg>