<svg width="36" height="36" viewBox="0 0 36 36" fill="none" xmlns="http://www.w3.org/2000/svg">
<path d="M22.5926 24.44C22.2818 24.44 22.0672 24.2605 21.9534 23.8972C21.8396 23.5338 21.7827 22.8727 21.7827 21.9139C21.7827 20.4035 22.0585 19.6461 22.6145 19.6461C22.956 19.6461 23.1793 19.8737 23.2843 20.3247C23.385 20.78 23.4376 21.3623 23.4376 22.0803C23.4376 23.652 23.1574 24.44 22.5926 24.44ZM22.6145 17.8817C21.6119 17.8817 20.8107 18.2538 20.2066 18.9937C19.6068 19.7336 19.3047 20.7493 19.3047 22.0321C19.3047 23.293 19.6024 24.3043 20.1891 25.0661C20.7801 25.8235 21.5725 26.2044 22.5663 26.2044C23.5645 26.2044 24.3657 25.8366 24.9743 25.0924C25.5828 24.3525 25.8893 23.3543 25.8893 22.1022C25.8893 20.7625 25.5872 19.7249 24.983 18.9894C24.3789 18.2495 23.5864 17.8817 22.6145 17.8817Z" fill="white"/>
<path d="M12.7561 15.8065C12.6423 15.4387 12.5854 14.7864 12.5854 13.8451C12.5854 12.3215 12.8525 11.5598 13.3953 11.5598C13.7325 11.5598 13.9514 11.783 14.0564 12.234C14.1659 12.6849 14.2184 13.2672 14.2184 13.9852C14.2184 15.5657 13.9382 16.3537 13.3822 16.3537C13.0757 16.3537 12.8656 16.1699 12.7561 15.8065ZM15.7814 17.0105C16.3856 16.2749 16.692 15.2724 16.692 14.0115C16.692 12.7725 16.4074 11.7612 15.8383 10.9731C15.2692 10.1894 14.468 9.79541 13.426 9.79541C12.4234 9.79541 11.6179 10.1675 11.0137 10.9031C10.4095 11.643 10.1074 12.6543 10.1074 13.9414C10.1074 15.2023 10.4051 16.2136 10.9918 16.9754C11.5784 17.7372 12.3753 18.1181 13.3778 18.1181C14.3717 18.1181 15.1728 17.7503 15.7814 17.0105Z" fill="white"/>
<path d="M21.831 9.92688L11.9453 26.0863H14.1781L23.9937 9.92688H21.831Z" fill="white"/>
<mask id="mask0_54_172" style="mask-type:luminance" maskUnits="userSpaceOnUse" x="1" y="1" width="34" height="34">
<path d="M1 1H34.9956V35H1V1Z" fill="white"/>
</mask>
<g mask="url(#mask0_54_172)">
<path d="M18 33.4108C9.50219 33.4108 2.58924 26.4978 2.58924 18C2.58924 9.50219 9.50219 2.58924 18 2.58924C26.4978 2.58924 33.4108 9.50219 33.4108 18C33.4108 26.4978 26.4978 33.4108 18 33.4108ZM30.0178 5.98223C26.8087 2.76874 22.54 1 18 1C13.46 1 9.19135 2.76874 5.97785 5.98223C2.76874 9.19135 1 13.46 1 18C1 22.54 2.76874 26.8087 5.97785 30.0221C9.19135 33.2313 13.46 35 18 35C22.54 35 26.8087 33.2313 30.0178 30.0221C33.2313 26.8087 34.9956 22.54 34.9956 18C34.9956 13.46 33.2313 9.19135 30.0178 5.98223Z" fill="white"/>
</g>
<mask id="mask1_54_172" style="mask-type:luminance" maskUnits="userSpaceOnUse" x="1" y="1" width="34" height="34">
<path d="M1 1H34.9956V35H1V1Z" fill="white"/>
</mask>
<g mask="url(#mask1_54_172)">
<mask id="mask2_54_172" style="mask-type:luminance" maskUnits="userSpaceOnUse" x="1" y="1" width="34" height="34">
<path d="M18 1C8.60906 1 1 8.61344 1 18C1 27.3909 8.60906 35 18 35C27.3866 35 34.9956 27.3909 34.9956 18C34.9956 8.61344 27.3866 1 18 1Z" fill="white"/>
</mask>
<g mask="url(#mask2_54_172)">
<path d="M18 1C8.60906 1 1 8.61344 1 18C1 27.3909 8.60906 35 18 35C27.3865 35 34.9956 27.3909 34.9956 18C34.9956 8.61344 27.3865 1 18 1Z" stroke="white" stroke-width="4"/>
</g>
</g>
<path d="M2.2959 17.965H33.9186" stroke="white" stroke-width="2"/>
</svg>
