<svg width="36" height="36" viewBox="0 0 36 36" fill="none" xmlns="http://www.w3.org/2000/svg">
<mask id="mask0_54_171" style="mask-type:luminance" maskUnits="userSpaceOnUse" x="0" y="8" width="17" height="19">
<path d="M0 8.66077H16.2919V26.2863H0V8.66077Z" fill="white"/>
</mask>
<g mask="url(#mask0_54_171)">
<path d="M16.2267 17.6152C16.2267 13.1643 12.595 9.55579 8.11132 9.55579C3.63175 9.55579 0 13.1643 0 17.6152C0 22.0662 3.63175 25.6747 8.11132 25.6747C12.595 25.6747 16.2267 22.0662 16.2267 17.6152ZM11.3355 16.9551H9.11402L8.87761 17.3236V18.2065H11.3355V19.462H8.87761V21.3534H7.3491V19.462H4.88717V18.2065H7.3491V17.3236L7.10861 16.9551H4.88717V15.8819H6.41568L5.11543 13.8731H6.41161L8.11132 16.5055L9.8151 13.8731H11.1072L9.81102 15.8819H11.3355V16.9551Z" fill="white"/>
</g>
<path d="M10.9643 8.23141C12.88 6.73696 15.289 5.84597 17.918 5.84597C17.9506 5.84597 17.9832 5.85002 18.0158 5.85002L17.168 8.39341L25.5932 6.34817L19.7971 0.5L18.7658 3.60633C18.4846 3.59013 18.2033 3.57798 17.918 3.57798C14.1762 3.57798 10.7768 5.08862 8.3271 7.52671C8.23743 7.61176 8.15591 7.70491 8.07031 7.79401C8.08662 7.79401 8.09885 7.78996 8.11107 7.78996C9.10563 7.78996 10.0635 7.94386 10.9643 8.23141Z" fill="white"/>
<mask id="mask1_54_171" style="mask-type:luminance" maskUnits="userSpaceOnUse" x="10" y="26" width="19" height="10">
<path d="M10.0303 26.2863H28.8127V35.5H10.0303V26.2863Z" fill="white"/>
</mask>
<g mask="url(#mask1_54_171)">
<path d="M25.0343 26.9992C23.1145 28.4936 20.7097 29.3805 18.0806 29.3846C18.048 29.3846 18.0154 29.3805 17.9828 29.3805L18.8265 26.8372L10.4014 28.8824L16.2016 34.7306L17.2328 31.6242C17.5141 31.6404 17.7953 31.6526 18.0806 31.6526C21.8224 31.6526 25.2218 30.1419 27.6715 27.7039C27.7571 27.6188 27.8427 27.5257 27.9243 27.4406C27.912 27.4406 27.8998 27.4406 27.8876 27.4406C26.893 27.4406 25.9311 27.2827 25.0343 26.9992Z" fill="white"/>
</g>
<path d="M28.4183 17.0483L27.6235 16.9835C27.3381 16.9552 27.1384 16.8863 27.0202 16.7851C26.8979 16.6798 26.8409 16.534 26.8409 16.3396C26.8409 16.1249 26.9224 15.9508 27.0936 15.8171C27.2607 15.6835 27.5175 15.6146 27.868 15.6146C28.137 15.6146 28.3938 15.647 28.6343 15.7118C28.8789 15.7726 29.1601 15.9751 29.1601 15.9751C29.2213 16.0075 29.3028 15.9913 29.3517 15.9427L29.8286 15.4607C29.8612 15.4243 29.8816 15.3716 29.8734 15.323C29.8653 15.2704 29.8327 15.2258 29.7878 15.2015C29.7878 15.2015 29.4128 14.914 29.0623 14.8168C28.8504 14.7601 28.6262 14.7236 28.3898 14.6993V13.9906H27.383V14.7115C27.2688 14.7317 27.1547 14.752 27.0487 14.7844C26.7879 14.8573 26.5637 14.9707 26.368 15.1165C26.1765 15.2623 26.0257 15.4445 25.9115 15.6592C25.8015 15.8738 25.7444 16.1209 25.7444 16.3963C25.7444 16.8904 25.8871 17.263 26.1805 17.506C26.4699 17.749 26.8857 17.8988 27.4197 17.9515L28.3286 18.0284C28.6017 18.0568 28.7974 18.1297 28.9156 18.239C29.0297 18.3524 29.0908 18.5023 29.0908 18.6967C29.0908 18.9599 28.9686 19.1584 28.7362 19.2839C28.4998 19.4095 28.2063 19.4743 27.8476 19.4743C27.5623 19.4743 27.277 19.4338 26.9917 19.3568C26.7023 19.2799 26.3232 18.9518 26.3232 18.9518C26.258 18.9113 26.1765 18.9235 26.1194 18.9761L25.614 19.4783C25.5773 19.5148 25.561 19.5634 25.5651 19.616C25.5732 19.6646 25.6017 19.7092 25.6466 19.7375C25.6466 19.7375 26.1642 20.1709 26.5596 20.2802C26.8205 20.3491 27.0936 20.3936 27.383 20.4179V21.2401H28.3898V20.4017C28.5283 20.3815 28.6588 20.3612 28.7851 20.3288C29.0786 20.2559 29.3272 20.1425 29.5351 19.9886C29.743 19.8388 29.9101 19.6525 30.0283 19.4297C30.1465 19.207 30.2077 18.9478 30.2077 18.6481C30.2077 18.154 30.0569 17.7773 29.7512 17.5181C29.4536 17.2589 29.0052 17.101 28.4183 17.0483Z" fill="white"/>
<mask id="mask2_54_171" style="mask-type:luminance" maskUnits="userSpaceOnUse" x="19" y="8" width="17" height="19">
<path d="M19.4229 8.66077H36.0001V26.2863H19.4229V8.66077Z" fill="white"/>
</mask>
<g mask="url(#mask2_54_171)">
<path d="M27.8879 9.55579C23.4042 9.55579 19.7725 13.1643 19.7725 17.6152C19.7725 22.0662 23.4042 25.6747 27.8879 25.6747C32.3674 25.6747 35.9992 22.0662 35.9992 17.6152C35.9992 13.1643 32.3674 9.55579 27.8879 9.55579ZM27.8879 23.6619C24.5333 23.6619 21.8023 20.9484 21.8023 17.6152C21.8023 14.2821 24.5333 11.5686 27.8879 11.5686C31.2424 11.5686 33.9693 14.2821 33.9693 17.6152C33.9693 20.9484 31.2424 23.6619 27.8879 23.6619Z" fill="white"/>
</g>
</svg>
