<svg xmlns="http://www.w3.org/2000/svg" viewBox="0 0 439.06 250"><defs><style>.cls-1{fill:#fff;}</style></defs><g id="Layer_2" data-name="Layer 2"><g id="Layer_1-2" data-name="Layer 1"><polygon class="cls-1" points="152.95 182.46 152.95 94.87 211.22 38.83 171.58 31.43 174.38 26.39 224.32 35.58 159.03 98.58 159.03 168.41 169.01 161.09 169.92 168.89 152.95 182.46"/><polygon class="cls-1" points="179.05 145.54 172.97 145.54 172.97 105.67 255.75 26.1 158.93 8.57 159.03 16.32 152.95 12.94 152.95 0 269.49 22.23 179.05 109.39 179.05 145.54"/><path class="cls-1" d="M225.41,185.32l-25.08-28.76V110l25.08-24Zm-19-31,12.92,14.82V101.15l-12.92,12.54Z"/><polygon class="cls-1" points="272.29 176.71 266.2 171.39 266.17 56.03 252.02 69.77 252.02 156.19 245.94 150.11 245.94 66.64 272.29 40.88 272.29 176.71"/><path class="cls-1" d="M0,211.29H17.56q6.29,0,10.16,3.36a11.12,11.12,0,0,1,3.87,8.85,11.42,11.42,0,0,1-3.87,9q-3.87,3.44-10.21,3.43H8.16v13.3H0Zm17.14,17.82a6.46,6.46,0,0,0,4.45-1.45,5.07,5.07,0,0,0,1.63-4,5.14,5.14,0,0,0-1.63-4,6.47,6.47,0,0,0-4.45-1.46h-9v11Z"/><path class="cls-1" d="M78.24,211.29v37.93h-8.1l.21-25.56L58.76,240.18H56.53L45.1,224.08l.2,25.14H37.2V211.29h8.31l12.16,18.34,12-18.34Z"/><path class="cls-1" d="M99.75,211.29h28.84v6.81H107.91v9.51h18.7v6.8h-18.7v14.81H99.75Z"/><path class="cls-1" d="M135.13,211.29h8.16v37.93h-8.16Z"/><path class="cls-1" d="M187,211.29v37.93h-8.1l-19.38-25.3.05,25.3h-8.16V211.29h8.11l19.38,25.57V211.29Z"/><path class="cls-1" d="M207.5,211.29h8.32l16.42,37.93h-8.78l-3.12-7.43H203.19l-3,7.43H191.4ZM217.58,235l-5.92-14.39L205.84,235Z"/><path class="cls-1" d="M272.4,211.29v37.93h-8.11l-19.38-25.3.05,25.3h-8.15V211.29h8.1l19.38,25.57V211.29Z"/><path class="cls-1" d="M284.14,244.57q-5.67-5.43-5.56-14.31-.1-8.88,5.56-14.32t15-5.42a27.28,27.28,0,0,1,13.51,3.53l-2.23,6.8a21.12,21.12,0,0,0-11-3.06,12.48,12.48,0,1,0,.06,24.94,21.51,21.51,0,0,0,11-3.12l2.23,6.81A27.29,27.29,0,0,1,299.15,250Q289.81,250,284.14,244.57Z"/><path class="cls-1" d="M318.48,211.29h8.16v37.93h-8.16Z"/><path class="cls-1" d="M347.21,211.29h8.31l16.42,37.93h-8.78L360,241.79H342.9l-3,7.43H331.1ZM357.29,235l-5.92-14.39L345.55,235Z"/><path class="cls-1" d="M376.51,211.29h8.16v31.12h19.58v6.81H376.51Z"/><path class="cls-1" d="M408.36,246.1l2.29-7.06a25.57,25.57,0,0,0,13.24,3.79,9.77,9.77,0,0,0,4.91-1.06,3.55,3.55,0,0,0,1.85-3.3,3,3,0,0,0-2-2.76,49.77,49.77,0,0,0-7.82-2.28c-1.32-.31-2.46-.63-3.43-.94a21,21,0,0,1-3.2-1.37,11.05,11.05,0,0,1-2.86-2.08,9.85,9.85,0,0,1-1.87-3,10.51,10.51,0,0,1-.75-4.05,9.8,9.8,0,0,1,4.21-8.5q4.22-3,11-3a28.64,28.64,0,0,1,13.25,3.22l-2.54,6.7a23.42,23.42,0,0,0-11.23-2.91,9.08,9.08,0,0,0-4.65,1,3,3,0,0,0-1.63,2.75A3,3,0,0,0,419,224a31.55,31.55,0,0,0,6.47,2c1.53.34,2.81.67,3.85,1a27.06,27.06,0,0,1,3.58,1.43,12.86,12.86,0,0,1,3.25,2.11,9.63,9.63,0,0,1,2.08,3,9.86,9.86,0,0,1,.85,4.19,10.63,10.63,0,0,1-4.44,9Q430.18,250,423.27,250A31.8,31.8,0,0,1,408.36,246.1Z"/></g></g></svg>